<svg width="31" height="31" viewBox="0 0 31 31" fill="none" xmlns="http://www.w3.org/2000/svg">
<path d="M5.53571 31V27.6786L1.02632 22.268C0.363143 21.4719 0 20.4689 0 19.4326V9.41071C0 8.494 0.744 7.75 1.66071 7.75C2.57743 7.75 3.32143 8.494 3.32143 9.41071V13.3455C2.57079 14.1094 2.21096 15.0848 2.21429 16.0558C2.21761 16.9614 2.54643 17.8195 3.01696 18.4018L5.48257 21.7C5.84904 22.1894 6.54211 22.2901 7.03146 21.9236C7.52082 21.5572 7.62157 20.863 7.25511 20.3747L4.76514 17.0456C4.28907 16.4521 4.29461 15.4945 4.91239 14.8778C5.49364 14.2965 6.64064 14.2689 7.23961 14.8678L12.3347 20.0659C12.948 20.6914 13.2857 21.5173 13.2857 22.392V31H5.53571Z" fill="white"/>
<path d="M17.7143 31V22.392C17.7143 21.5173 18.052 20.6914 18.6642 20.0659L23.7593 14.8678C24.3549 14.2722 25.5008 14.2921 26.0865 14.8778C26.7043 15.4934 26.7109 16.4521 26.2337 17.0456L23.7438 20.3747C23.3773 20.8641 23.4781 21.5583 23.9674 21.9236C24.4579 22.2901 25.151 22.1894 25.5163 21.7L27.9819 18.4018C28.4525 17.8206 28.7813 16.9625 28.7846 16.0558C28.7879 15.0837 28.4281 14.1094 27.6775 13.3455V9.41071C27.6786 8.494 28.4226 7.75 29.3393 7.75C30.256 7.75 31 8.494 31 9.41071V19.4326C31 20.4689 30.6369 21.4719 29.9737 22.268L25.4643 27.6786V31H17.7143Z" fill="white"/>
<path d="M22.1429 0H8.85714C7.63375 0 6.64286 0.990893 6.64286 2.21429V11.0714C6.64286 12.2948 7.63375 13.2857 8.85714 13.2857H12.1786L15.5 16.6071L18.8214 13.2857H22.1429C23.3662 13.2857 24.3571 12.2948 24.3571 11.0714V2.21429C24.3571 0.990893 23.3662 0 22.1429 0ZM10.5179 8.30357C9.60114 8.30357 8.85714 7.55957 8.85714 6.64286C8.85714 5.72614 9.60114 4.98214 10.5179 4.98214C11.4346 4.98214 12.1786 5.72614 12.1786 6.64286C12.1786 7.55957 11.4346 8.30357 10.5179 8.30357ZM15.5 8.30357C14.5833 8.30357 13.8393 7.55957 13.8393 6.64286C13.8393 5.72614 14.5833 4.98214 15.5 4.98214C16.4167 4.98214 17.1607 5.72614 17.1607 6.64286C17.1607 7.55957 16.4167 8.30357 15.5 8.30357ZM20.4821 8.30357C19.5654 8.30357 18.8214 7.55957 18.8214 6.64286C18.8214 5.72614 19.5654 4.98214 20.4821 4.98214C21.3989 4.98214 22.1429 5.72614 22.1429 6.64286C22.1429 7.55957 21.3989 8.30357 20.4821 8.30357Z" fill="white"/>
</svg>
