<svg width="31" height="31" viewBox="0 0 31 31" fill="none" xmlns="http://www.w3.org/2000/svg">
<path d="M22.7657 10.9593C18.2584 10.9593 14.5918 14.6258 14.5918 19.133C14.5918 23.6402 18.2583 27.3067 22.7656 27.3067C27.2729 27.3067 31 23.6402 31 19.133C31 14.6258 27.273 10.9593 22.7657 10.9593ZM23.6978 23.5098C23.6899 23.5127 23.6816 23.5114 23.6738 23.5141V24.5821C23.6738 25.0841 23.2676 25.4903 22.7656 25.4903C22.2636 25.4903 21.8573 25.0841 21.8573 24.5821V23.508C21.2592 23.3058 20.686 22.9223 20.1961 22.3382C19.8732 21.9542 19.9229 21.3813 20.3079 21.0593C20.6919 20.7365 21.2666 20.7861 21.5868 21.1711C22.0675 21.7431 22.6112 21.9702 23.076 21.8034C23.4334 21.6731 23.6738 21.3298 23.6738 20.9494C23.6738 20.4483 23.2667 20.0412 22.7656 20.0412C21.2631 20.0412 20.041 18.819 20.041 17.3166C20.041 16.2195 20.6937 15.2341 21.704 14.8067C21.754 14.7855 21.807 14.7867 21.8574 14.7687V13.6839C21.8574 13.1819 22.2636 12.7757 22.7656 12.7757C23.2676 12.7757 23.6738 13.1819 23.6738 13.6839V14.7703C24.1441 14.9292 24.6027 15.1818 25.0122 15.5783C25.3723 15.9269 25.3812 16.5016 25.0317 16.8626C24.6831 17.2227 24.1075 17.2307 23.7474 16.8821C23.3057 16.4537 22.817 16.3065 22.4126 16.4795C22.0756 16.6222 21.8573 16.9504 21.8573 17.3167C21.8573 17.8178 22.2645 18.2249 22.7656 18.2249C24.268 18.2249 25.4901 19.4471 25.4901 20.9494C25.4903 22.0908 24.7701 23.1196 23.6978 23.5098Z" fill="white"/>
<path d="M0.908217 20.0412C0.406215 20.0412 0 20.4474 0 20.9494V30.0918C0 30.5938 0.406215 31 0.908217 31H3.63281V20.0412H0.908217Z" fill="white"/>
<path d="M21.5399 5.66865L15.1825 0.219512C14.8437 -0.0731707 14.3399 -0.0731707 14.0011 0.219512L7.64368 5.66865C7.35456 5.9152 7.25078 6.31608 7.3829 6.67264C7.51417 7.0292 7.85384 7.266 8.23438 7.266H10.959C10.959 15.1176 10.959 23.1479 10.959 31C13.2987 31 14.9162 31 17.3164 31C17.8184 31 18.2247 30.5938 18.2247 30.0918V28.0203C14.9949 26.3632 12.7754 23.0058 12.7754 19.133C12.7754 15.2603 14.995 11.9029 18.2247 10.2458V7.26606H20.9492C21.3297 7.26606 21.6695 7.02926 21.8007 6.6727C21.9329 6.31608 21.8291 5.9152 21.5399 5.66865Z" fill="white"/>
<path d="M6.41795 12.7757C5.91595 12.7757 5.50973 13.1819 5.50973 13.6839V30.9999C6.83633 30.9999 7.85451 30.9999 9.14254 30.9999V12.7757H6.41795Z" fill="white"/>
</svg>
